<?xml version="1.0" encoding="UTF-8"?>
<svg xmlns="http://www.w3.org/2000/svg" xmlns:xlink="http://www.w3.org/1999/xlink" width="24px" height="24px" viewBox="0 0 24 24" version="1.1">
<g id="surface1">
<path style=" stroke:none;fill-rule:nonzero;fill:rgb(11.764706%,18.823529%,31.372549%);fill-opacity:1;" d="M 21 1.5 L 16.964844 1.5 L 10.964844 7.5 L 15.28125 7.5 L 15.328125 7.453125 L 21.273438 1.515625 C 21.183594 1.503906 21.09375 1.5 21 1.5 Z M 24 7.5 L 24 4.5 C 24 3.792969 23.75 3.136719 23.34375 2.625 L 18.46875 7.5 Z M 13.785156 1.5 L 9.464844 1.5 L 3.464844 7.5 L 7.78125 7.5 L 13.78125 1.5 Z M 3 1.5 C 1.34375 1.5 0 2.84375 0 4.5 L 0 7.5 L 0.285156 7.5 L 6.285156 1.5 Z M 24 9 L 0 9 L 0 19.5 C 0 21.15625 1.34375 22.5 3 22.5 L 21 22.5 C 22.65625 22.5 24 21.15625 24 19.5 Z M 24 9 "/>
</g>
</svg>
